<svg width="20" height="20" viewBox="0 0 20 20" fill="none" xmlns="http://www.w3.org/2000/svg">
<g clip-path="url(#clip0_2245_413)">
<path fill-rule="evenodd" clip-rule="evenodd" d="M11.1459 5.10416V7.70832H10.9375C9.78694 7.70832 8.85419 6.77558 8.85419 5.62499V5.10416H11.1459Z" fill="#FF4800"/>
<path fill-rule="evenodd" clip-rule="evenodd" d="M9.06252 8.95834C10.2131 8.95834 11.1459 9.89109 11.1459 11.0417V14.8958H8.85419V8.95834H9.06252Z" fill="#FF4800"/>
<path fill-rule="evenodd" clip-rule="evenodd" d="M10 2.70833C5.97292 2.70833 2.70833 5.97292 2.70833 10C2.70833 14.0271 5.97292 17.2917 10 17.2917C14.0271 17.2917 17.2917 14.0271 17.2917 10C17.2917 5.97292 14.0271 2.70833 10 2.70833ZM0.625 10C0.625 4.82233 4.82233 0.625 10 0.625C15.1777 0.625 19.375 4.82233 19.375 10C19.375 15.1777 15.1777 19.375 10 19.375C4.82233 19.375 0.625 15.1777 0.625 10Z" fill="#FF4800"/>
</g>
<defs>
<clipPath id="clip0_2245_413">
<rect width="20" height="20" fill="white"/>
</clipPath>
</defs>
</svg>
